<?xml version="1.0" encoding="UTF-8"?>
<svg width="279px" height="279px" viewBox="0 0 279 279" version="1.1" xmlns="http://www.w3.org/2000/svg" xmlns:xlink="http://www.w3.org/1999/xlink">
    <!-- Generator: Sketch 61.2 (89653) - https://sketch.com -->
    <title>record</title>
    <desc>Created with Sketch.</desc>
    <defs>
        <linearGradient x1="53.2195657%" y1="6.07728%" x2="47.8212343%" y2="79.6649143%" id="linearGradient-1">
            <stop stop-color="#58595B" offset="0.8108108%"></stop>
            <stop stop-color="#515153" offset="22.84%"></stop>
            <stop stop-color="#3C3D3E" offset="56.57%"></stop>
            <stop stop-color="#1B1B1B" offset="97.62%"></stop>
            <stop stop-color="#191919" offset="100%"></stop>
        </linearGradient>
        <linearGradient x1="49.799848%" y1="1.43015669%" x2="50.1874415%" y2="96.58605%" id="linearGradient-2">
            <stop stop-color="#000000" offset="0.8108108%"></stop>
            <stop stop-color="#040404" offset="10.78%"></stop>
            <stop stop-color="#111111" offset="21.61%"></stop>
            <stop stop-color="#262627" offset="32.84%"></stop>
            <stop stop-color="#434445" offset="44.26%"></stop>
            <stop stop-color="#58595B" offset="51.08%"></stop>
            <stop stop-color="#515254" offset="52.57%"></stop>
            <stop stop-color="#38393A" offset="59.05%"></stop>
            <stop stop-color="#242525" offset="66.19%"></stop>
            <stop stop-color="#171717" offset="74.24%"></stop>
            <stop stop-color="#0E0E0F" offset="83.98%"></stop>
            <stop stop-color="#0C0C0C" offset="100%"></stop>
        </linearGradient>
    </defs>
    <g id="Page-1" stroke="none" stroke-width="1" fill="none" fill-rule="evenodd">
        <g id="home" transform="translate(-48.000000, -184.000000)" fill-rule="nonzero">
            <g id="record" transform="translate(48.000000, 184.000000)">
                <g id="object">
                    <g id="Group">
                        <circle id="Oval" fill="url(#linearGradient-1)" cx="139.563699" cy="139.531849" r="139.340753"></circle>
                        <circle id="Oval" fill="url(#linearGradient-2)" cx="139.563699" cy="139.531849" r="136.187671"></circle>
                        <circle id="Oval" fill="#0C0C0C" cx="139.563699" cy="139.563699" r="48.1243151"></circle>
                        <circle id="Oval" fill="#1E1E1E" cx="139.563699" cy="139.563699" r="47.4873288"></circle>
                        <g transform="translate(18.791096, 35.034247)" fill="#0F0F0E" id="Path">
                            <path d="M53.6979452,204.12226 C45.2260274,198.516781 37.4547945,191.796575 30.6390411,184.248288 C23.855137,176.636301 18.0585616,168.164384 13.4085616,159.087329 C4.07671233,140.965068 -0.509589041,120.390411 0.254794521,99.975 C1.01917808,79.559589 7.10239726,59.3989726 17.8037671,42.0092466 C23.1226027,33.3143836 29.5561644,25.2883562 36.8815068,18.2178082 C44.2386986,11.1791096 52.4876712,5.0640411 61.3736301,0.12739726 C52.5832192,5.25513699 44.4934932,11.4976027 37.2955479,18.6318493 C30.0657534,25.7342466 23.7277397,33.760274 18.4726027,42.4232877 C7.96232877,59.7811644 2.10205479,79.8143836 1.43321918,100.038699 C0.573287671,120.263014 4.93664384,140.678425 14.1092466,158.768836 C18.6636986,167.814041 24.3965753,176.285959 31.0849315,183.897945 C37.709589,191.509932 45.3215753,198.357534 53.6979452,204.12226 Z"></path>
                            <path d="M180.681164,0.350342466 C189.981164,5.60547945 198.580479,12.134589 206.192466,19.6828767 C213.772603,27.2630137 220.301712,35.8623288 225.620548,45.1623288 C236.290068,63.7623288 241.768151,85.2924658 241.385959,106.790753 C241.003767,128.257192 234.697603,149.596233 223.327397,167.782192 C217.658219,176.891096 210.778767,185.235616 202.911986,192.49726 C195.013356,199.727055 186.159247,205.905822 176.668151,210.810616 C186.095548,205.746575 194.790411,199.408562 202.529795,192.05137 C210.301027,184.757877 217.084932,176.413356 222.658562,167.336301 C233.837671,149.182192 239.95274,128.002397 240.207534,106.727055 C240.717123,85.4517123 235.430137,64.0808219 224.951712,45.5126712 C219.728425,36.2126712 213.263014,27.6452055 205.778425,20.0332192 C198.357534,12.4530822 189.885616,5.79657534 180.681164,0.350342466 Z"></path>
                            <path d="M64.6222603,207.530137 C55.3222603,202.497945 46.6910959,196.22363 39.0472603,188.898288 C31.435274,181.541096 24.8106164,173.164726 19.3962329,164.023973 C8.56746575,145.774315 2.89828767,124.562671 3.08938356,103.351027 C3.24863014,82.1075342 9.39554795,60.9914384 20.5746575,42.9965753 C26.1482877,33.9832192 32.9321918,25.7342466 40.7034247,18.5363014 C48.5065068,11.3702055 57.2650685,5.25513699 66.6606164,0.414041096 C47.9650685,10.3191781 32.040411,25.2883562 21.0205479,43.2832192 C9.96883562,61.2780822 3.94931507,82.2986301 3.88561644,103.382877 C3.5989726,124.467123 9.14075342,145.583219 19.8421233,163.801027 C30.5116438,181.955137 46.1178082,197.242808 64.6222603,207.530137 Z"></path>
                            <path d="M178.57911,2.38869863 C187.84726,7.58013699 196.414726,14.0455479 203.963014,21.5619863 C211.479452,29.0784247 217.976712,37.6458904 223.231849,46.8821918 C233.742123,65.3866438 239.02911,86.8530822 238.360274,108.160274 C237.723288,129.467466 231.130479,150.551712 219.47363,168.387329 C213.677055,177.305137 206.638356,185.426712 198.676027,192.465411 C190.681849,199.47226 181.732192,205.396233 172.145548,210.014384 C191.191438,200.555137 207.561986,185.904452 219.059589,168.100685 C230.589041,150.296918 237.054452,129.308219 237.59589,108.160274 C238.360274,87.0123288 233.200685,65.6414384 222.817808,47.1688356 C212.403082,28.6643836 196.988014,13.0263699 178.57911,2.38869863 Z"></path>
                            <path d="M78.444863,203.517123 C69.0811644,199.599658 60.2589041,194.344521 52.3284247,187.942808 C44.4297945,181.509247 37.4547945,173.960959 31.6582192,165.55274 C20.0332192,148.8 13.344863,128.639384 12.6441781,108.255822 C11.9434932,87.840411 17.1986301,67.2976027 27.6133562,49.7804795 C32.8047945,41.0219178 39.2383562,32.9958904 46.6592466,26.0208904 C54.1119863,19.0777397 62.5520548,13.2174658 71.6291096,8.6630137 C62.6476027,13.4085616 54.3349315,19.4280822 47.0732877,26.4349315 C39.7479452,33.4099315 33.4099315,41.4359589 28.3140411,50.1626712 C18.0585616,67.6160959 13.0263699,88.0315068 13.8544521,108.192123 C14.4277397,128.384589 20.8931507,148.385959 32.3270548,165.106849 C38.0280822,173.483219 44.9075342,181.031507 52.7106164,187.496918 C60.45,193.994178 69.144863,199.440411 78.444863,203.517123 Z"></path>
                            <path d="M170.871575,9.14075342 C179.789384,13.7270548 188.070205,19.5873288 195.363699,26.4667808 C202.657192,33.3780822 208.963356,41.340411 214.059247,50.0034247 C224.314726,67.3294521 229.506164,87.5856164 228.901027,107.746233 C228.29589,127.906849 221.894178,147.812671 210.587671,164.501712 C204.950342,172.846233 198.166438,180.394521 190.490753,186.859932 C182.75137,193.293493 174.152055,198.612329 164.947603,202.657192 C174.056507,198.453082 182.528425,192.943151 190.108562,186.414041 C197.720548,179.916781 204.408904,172.368493 209.950685,164.055822 C221.034247,147.430479 227.276712,127.652055 227.722603,107.714384 C228.455137,87.7767123 223.454795,67.6797945 213.390411,50.4174658 C208.390068,41.7863014 202.147603,33.8558219 194.981507,26.8808219 C187.815411,19.9376712 179.693836,13.9181507 170.871575,9.14075342 Z"></path>
                            <path d="M86.1523973,202.689041 C76.4383562,199.376712 67.2020548,194.631164 58.8575342,188.611644 C50.5130137,182.560274 43.0921233,175.266781 36.8815068,167.049658 C24.3965753,150.615411 17.1030822,130.327397 16.0839041,109.689041 C15.0328767,89.0506849 20.2880137,68.1256849 31.0849315,50.544863 C36.4674658,41.7544521 43.1558219,33.760274 50.8315068,26.9126712 C58.5390411,20.0969178 67.2657534,14.459589 76.5976027,10.1917808 C67.3613014,14.6825342 58.8575342,20.5428082 51.3410959,27.4859589 C43.8246575,34.3972603 37.3273973,42.3914384 32.1041096,51.1818493 C26.9126712,59.9722603 22.9633562,69.4315068 20.5109589,79.3366438 C18.0585616,89.2099315 17.1030822,99.465411 17.6445205,109.625342 C18.1222603,119.785274 20.0969178,129.881507 23.5047945,139.468151 C26.9126712,149.054795 31.7856164,158.131849 37.805137,166.348973 C43.8246575,174.566096 51.1181507,181.891438 59.2715753,188.006507 C67.4568493,194.185274 76.5339041,199.153767 86.1523973,202.689041 Z"></path>
                            <path d="M167.208904,11.2746575 C176.158562,15.6061644 184.503082,21.2434932 191.892123,27.9636986 C199.249315,34.7157534 205.651027,42.5188356 210.810616,51.0863014 C221.193493,68.2212329 226.289384,88.4455479 225.525,108.446918 C224.792466,128.448288 218.135959,148.258562 206.510959,164.533562 C200.714384,172.686986 193.739384,179.980479 185.904452,186.159247 C178.037671,192.306164 169.27911,197.274658 160.010959,200.905479 C169.183562,197.019863 177.751027,191.828425 185.426712,185.55411 C193.134247,179.311644 199.918151,171.986301 205.52363,163.832877 C211.12911,155.679452 215.651712,146.793493 218.741096,137.429795 C221.862329,128.066096 223.614041,118.256507 223.932534,108.383219 C224.346575,98.5099315 223.327397,88.6047945 220.938699,79.0181507 C218.55,69.4315068 214.728082,60.2270548 209.759589,51.6914384 C204.791096,43.1558219 198.54863,35.3208904 191.350685,28.505137 C184.216438,21.6893836 176.063014,15.8609589 167.208904,11.2746575 Z"></path>
                            <path d="M95.4842466,191.605479 C86.5027397,189.057534 77.935274,185.108219 70.1321918,179.94863 C62.3609589,174.757192 55.4178082,168.355479 49.5575342,161.061986 C37.8369863,146.475 30.8619863,128.161644 29.8428082,109.466096 C28.7917808,90.7705479 33.760274,71.7883562 43.8246575,56.0229452 C48.825,48.1243151 55.0674658,41.0219178 62.2017123,35.0023973 C69.3678082,29.014726 77.4575342,24.1417808 86.1205479,20.6383562 C68.9219178,27.9 54.1438356,40.5760274 44.2705479,56.309589 C34.3335616,72.0431507 29.4924658,90.8979452 30.6390411,109.434247 C31.5626712,127.970548 38.410274,146.188356 49.9715753,160.743493 C61.5328767,175.29863 77.6167808,186.286644 95.4842466,191.605479 Z"></path>
                            <path d="M155.392808,20.6383562 C163.896575,24.0780822 171.858904,28.8554795 178.961301,34.7157534 C186.031849,40.5760274 192.210616,47.5510274 197.210959,55.2585616 C207.275342,70.6736301 212.403082,89.2099315 211.766096,107.618836 C211.192808,126.02774 204.759247,144.181849 193.675685,158.896233 C188.165753,166.253425 181.509247,172.782534 174.056507,178.133219 C166.571918,183.483904 158.291096,187.688014 149.564384,190.554452 C166.92226,184.59863 182.337329,173.260274 193.229795,158.57774 C204.185959,143.927055 210.428425,125.868493 210.938014,107.586986 C211.670548,89.3373288 206.670205,70.8965753 196.733219,55.5133562 C186.859932,40.130137 172.272945,27.7726027 155.392808,20.6383562 Z"></path>
                            <path d="M98.5736301,189.280479 C89.5284247,187.019178 80.865411,183.260959 72.9667808,178.260616 C65.1,173.228425 58.0294521,166.890411 52.1373288,159.628767 C40.2893836,145.105479 33.3780822,126.632877 32.7092466,107.905479 C31.944863,89.1780822 37.3910959,70.2277397 48.0924658,54.8445205 C53.4113014,47.1369863 59.9722603,40.3212329 67.425,34.6520548 C74.909589,29.0465753 83.2541096,24.6195205 92.1082192,21.6575342 C74.5592466,27.9636986 59.239726,39.9708904 48.8568493,55.3222603 C43.6972603,62.9979452 39.6842466,71.469863 37.1363014,80.3876712 C34.5883562,89.2736301 33.5054795,98.6054795 33.8876712,107.841781 C34.2061644,117.078082 36.0215753,126.282534 39.2383562,134.945548 C42.455137,143.640411 47.105137,151.761986 52.8380137,159.02363 C64.3674658,173.578767 80.5787671,184.375685 98.5736301,189.280479 Z"></path>
                            <path d="M149.436986,21.6575342 C158.227397,24.6195205 166.571918,28.9828767 174.024658,34.5883562 C181.445548,40.1938356 188.006507,47.009589 193.325342,54.6534247 C204.026712,69.9729452 209.504795,88.8277397 208.835959,107.491438 C208.262671,126.155137 201.478767,144.59589 189.758219,159.151027 C183.929795,166.444521 176.922945,172.782534 169.119863,177.846575 C161.284932,182.910616 152.685616,186.700685 143.70411,189.057534 C161.603425,183.993493 177.655479,173.132877 189.057534,158.57774 C194.726712,151.316096 199.313014,143.162671 202.466096,134.499658 C205.619178,125.836644 207.37089,116.664041 207.657534,107.459589 C208.007877,98.255137 206.861301,88.9869863 204.313356,80.1328767 C201.765411,71.2787671 197.752397,62.8386986 192.592808,55.194863 C182.241781,39.9071918 166.95411,27.9318493 149.436986,21.6575342 Z"></path>
                            <path d="M109.593493,159.405822 C96.1530822,156.762329 83.8592466,148.959247 75.6421233,137.939384 C67.3931507,126.983219 63.380137,112.873973 64.7496575,99.1787671 C66.0236301,85.4835616 72.5208904,72.3616438 82.6489726,63.0616438 C92.7133562,53.6979452 106.313014,48.1880137 120.135616,48.0924658 C133.92637,47.9650685 147.653425,53.0609589 157.940753,62.2017123 C168.259932,71.2787671 175.171233,84.209589 176.636301,97.9047945 C178.196918,111.536301 174.725342,125.772945 166.635616,136.888356 C158.641438,148.035616 146.506849,156.125342 133.130137,159.055479 C146.475,155.966096 158.482192,147.780822 166.285274,136.633562 C174.279452,125.55 177.687329,111.440753 176.063014,97.9366438 C174.597945,84.3688356 167.686644,71.5972603 157.463014,62.6794521 C147.271233,53.6660959 133.703425,48.6976027 120.135616,48.8568493 C106.535959,48.8886986 93.0955479,54.2712329 83.1267123,63.4756849 C73.0941781,72.6164384 66.5969178,85.5472603 65.2910959,99.1150685 C63.889726,112.682877 67.8071918,126.664726 75.9606164,137.589041 C84.0184932,148.704452 96.1849315,156.666781 109.593493,159.405822 Z"></path>
                            <path d="M113.415411,157.845205 C100.197945,156.157192 87.7767123,149.24589 79.2410959,138.990411 C70.6417808,128.766781 66.1191781,115.262671 66.819863,101.917808 C67.3613014,88.5729452 73.1260274,75.514726 82.6171233,66.0873288 C92.0445205,56.5962329 105.166438,50.8633562 118.575,50.3856164 C131.951712,49.8123288 145.487671,54.4304795 155.679452,63.0934932 C165.966781,71.6928082 172.782534,84.2414384 174.375,97.5226027 C176.094863,110.740068 172.782534,124.62637 165.011301,135.486986 C157.271918,146.379452 145.487671,154.214384 132.461301,157.048973 C145.455822,154.118836 157.112671,146.124658 164.660959,135.264041 C172.336644,124.435274 175.553425,110.708219 173.801712,97.5863014 C172.177397,84.4643836 165.361644,72.075 155.201712,63.6349315 C145.105479,55.0993151 131.760616,50.6085616 118.606849,51.2136986 C105.421233,51.6277397 92.490411,57.2013699 83.1267123,66.5650685 C73.6993151,75.8332192 67.9664384,88.7003425 67.3931507,101.917808 C66.6606164,115.135274 71.0876712,128.511986 79.5914384,138.703767 C87.9041096,148.991096 100.229795,156.029795 113.415411,157.845205 Z"></path>
                            <path d="M115.549315,173.578767 C106.886301,173.037329 98.3506849,170.839726 90.4520548,167.113356 C82.585274,163.386986 75.4510274,158.131849 69.4952055,151.761986 C57.519863,139.02226 50.7996575,121.600685 50.8952055,104.115411 C50.9270548,86.630137 57.9339041,69.2722603 70.0047945,56.6599315 C76.0243151,50.3537671 83.2541096,45.1941781 91.1527397,41.5315068 C99.0513699,37.9006849 107.650685,35.7986301 116.313699,35.3527397 C99.0195205,36.6267123 82.4260274,44.6527397 70.7054795,57.2650685 C64.8452055,63.5712329 60.1315068,70.9284247 56.9465753,78.9226027 C53.7616438,86.9167808 52.1054795,95.4842466 52.1054795,104.083562 C52.0417808,112.682877 53.6023973,121.282192 56.6917808,129.308219 C59.7811644,137.334247 64.3993151,144.755137 70.1958904,151.125 C81.7253425,163.928425 98.255137,172.113699 115.549315,173.578767 Z"></path>
                            <path d="M125.135959,35.3527397 C133.767123,35.7986301 142.334589,37.8688356 150.233219,41.4678082 C158.131849,45.0986301 165.329795,50.2263699 171.349315,56.5006849 C183.483904,69.0174658 190.522603,86.3116438 190.618151,103.765068 C190.809247,121.218493 184.216438,138.608219 172.368493,151.411644 C166.47637,157.813356 159.405822,163.132192 151.60274,166.890411 C143.767808,170.64863 135.264041,172.909932 126.632877,173.546918 C143.863356,171.954452 160.265753,163.609932 171.699658,150.806507 C177.432534,144.404795 181.986986,136.983904 185.012671,128.957877 C188.038356,120.931849 189.535274,112.364384 189.439726,103.796918 C189.407877,95.2294521 187.719863,86.6619863 184.503082,78.6996575 C181.318151,70.7373288 176.572603,63.4119863 170.680479,57.1376712 C158.959932,44.5571918 142.398288,36.594863 125.135959,35.3527397 Z"></path>
                            <path d="M113.925,176.795548 C105.453082,176.031164 97.1085616,173.801712 89.4010274,170.17089 C81.6934932,166.508219 74.6866438,161.476027 68.6989726,155.424658 C56.6917808,143.290068 49.2071918,126.823973 47.9969178,109.784589 C46.6910959,92.7452055 51.755137,75.3236301 61.9150685,61.6284247 C66.9472603,54.7489726 73.189726,48.7613014 80.2921233,44.0476027 C87.3945205,39.3339041 95.325,35.8941781 103.573973,33.9513699 C87.0760274,38.0917808 72.2660959,48.2517123 62.3291096,61.9469178 C52.3284247,75.610274 47.4236301,92.8726027 48.7931507,109.75274 C49.9078767,126.632877 57.2332192,142.971575 69.0811644,155.074315 C80.865411,167.177055 96.9811644,175.043836 113.925,176.795548 Z"></path>
                            <path d="M137.143151,33.7284247 C145.487671,35.5756849 153.481849,38.9517123 160.647945,43.6017123 C167.814041,48.2835616 174.120205,54.2393836 179.247945,61.0869863 C189.535274,74.7821918 194.758562,92.2037671 193.548288,109.338699 C192.433562,126.47363 184.980822,143.035274 172.97363,155.265411 C166.985959,161.380479 159.94726,166.444521 152.207877,170.139041 C144.468493,173.801712 136.092123,176.063014 127.588356,176.795548 C144.59589,175.043836 160.775342,167.145205 172.591438,154.883219 C184.471233,142.684932 191.764726,126.218836 192.783904,109.275 C194.057877,92.3311644 188.993836,75.0369863 178.865753,61.3736301 C168.737671,47.7421233 153.768493,37.6777397 137.143151,33.7284247 Z"></path>
                        </g>
                    </g>
                </g>
            </g>
        </g>
    </g>
</svg>